<?xml version="1.0" encoding="UTF-8" standalone="no"?>
<!-- 
  ZenSort Full Logo: Enso Dot Icon + Nunito Wordmark (v5 - Final)
  
  - Aligned with the Pul5 brand identity.
  - Wordmark is set in Nunito.
  - For web use, ensure the Nunito font is loaded, e.g., from Google Fonts:
    <link href="https://fonts.googleapis.com/css2?family=Nunito:wght@400;700&display=swap" rel="stylesheet">

  - FINAL OPTIMIZATIONS (v5):
    - Removed space between "Zen" and "Sort" to create a single, unified logotype.
    - Meticulously adjusted kerning and spacing for a final, polished composition.
    - Finalized the SVG viewBox for a production-ready asset.
-->

<svg
   width="255"
   height="100"
   viewBox="0 0 255 100"
   fill="none"
   version="1.1"
   id="svg9"
   sodipodi:docname="zensort_logo_wordmark_inkscape.svg"
   inkscape:version="1.4.2 (f4327f4, 2025-05-13)"
   xmlns:inkscape="http://www.inkscape.org/namespaces/inkscape"
   xmlns:sodipodi="http://sodipodi.sourceforge.net/DTD/sodipodi-0.dtd"
   xmlns="http://www.w3.org/2000/svg"
   xmlns:svg="http://www.w3.org/2000/svg"
   xmlns:rdf="http://www.w3.org/1999/02/22-rdf-syntax-ns#"
   xmlns:cc="http://creativecommons.org/ns#"
   xmlns:dc="http://purl.org/dc/elements/1.1/">
  <sodipodi:namedview
     id="namedview9"
     pagecolor="#ffffff"
     bordercolor="#000000"
     borderopacity="0.25"
     inkscape:showpageshadow="2"
     inkscape:pageopacity="0.0"
     inkscape:pagecheckerboard="0"
     inkscape:deskcolor="#d1d1d1"
     inkscape:zoom="6.6994901"
     inkscape:cx="108.29182"
     inkscape:cy="49.929173"
     inkscape:window-width="2560"
     inkscape:window-height="1369"
     inkscape:window-x="-8"
     inkscape:window-y="-8"
     inkscape:window-maximized="1"
     inkscape:current-layer="svg9" />
  <title
     id="title1">ZenSort Full Logo</title>
  <!-- Gradient Definitions -->
  <defs
     id="defs8">
    <!-- Gradient for the Icon Stroke -->
    <linearGradient
       id="pul5-gradient-icon"
       x1="10.5"
       y1="18"
       x2="83"
       y2="88"
       gradientUnits="userSpaceOnUse">
      <stop
         stop-color="#FF9D00"
         id="stop1" />
      <stop
         offset="0.26"
         stop-color="#F75830"
         id="stop2" />
      <stop
         offset="0.5"
         stop-color="#F11E5A"
         id="stop3" />
      <stop
         offset="1"
         stop-color="#9800A6"
         id="stop4" />
    </linearGradient>
    <!-- Gradient for the "Sort" Text -->
    <linearGradient
       id="pul5-gradient-text"
       x1="162"
       y1="61"
       x2="245"
       y2="61"
       gradientUnits="userSpaceOnUse">
      <stop
         stop-color="#FF9D00"
         id="stop5" />
      <stop
         offset="0.26"
         stop-color="#F75830"
         id="stop6" />
      <stop
         offset="0.5"
         stop-color="#F11E5A"
         id="stop7" />
      <stop
         offset="1"
         stop-color="#9800A6"
         id="stop8" />
    </linearGradient>
  </defs>
  <!-- Icon Group -->
  <!-- Wordmark with Typographic Hierarchy and Gradient -->
  <g
     id="g10">
    <g
       transform="translate(0, 12) scale(0.75)"
       id="g8">
      <!-- The Open Circle (Enso) -->
      <path
         d="M85,50 A35,35 0 1 1 50,15"
         stroke="url(#pul5-gradient-icon)"
         stroke-width="13"
         stroke-linecap="round"
         id="path8" />
      <!-- The Dot -->
      <circle
         cx="68"
         cy="32"
         r="8"
         fill="#9800A6"
         id="circle8" />
    </g>
    <g
       id="text9"
       style="font-size:40px;font-family:Nunito, sans-serif;letter-spacing:0.5"
       aria-label="ZenSort">
      <path
         style="fill:#4a5568"
         d="M 103.15625,61 H 80.460937 V 57.40625 L 98.292969,35.355469 H 81.125 v -3.4375 h 21.60156 v 3.496093 L 84.71875,57.5625 h 18.4375 z m 23.44922,-10.527344 h -16.07422 q 0,2.011719 0.60547,3.515625 0.60547,1.484375 1.66016,2.441406 1.01562,0.9375 2.40234,1.40625 1.40625,0.46875 3.08594,0.46875 2.22656,0 4.47265,-0.878906 2.26563,-0.898437 3.22266,-1.757812 h 0.19531 v 4.003906 q -1.85547,0.78125 -3.78906,1.308594 -1.93359,0.527343 -4.0625,0.527343 -5.42969,0 -8.47656,-2.929687 -3.04688,-2.949219 -3.04688,-8.359375 0,-5.351563 2.91016,-8.496094 2.92969,-3.144531 7.69531,-3.144531 4.41406,0 6.79688,2.578125 2.40234,2.578125 2.40234,7.324219 z m -3.57422,-2.8125 q -0.0195,-2.890625 -1.46484,-4.472656 -1.42578,-1.582031 -4.35547,-1.582031 -2.94922,0 -4.70703,1.738281 -1.73828,1.738281 -1.97266,4.316406 z M 150.91406,61 h -3.67187 V 48.578125 q 0,-1.503906 -0.17578,-2.8125 -0.17579,-1.328125 -0.64454,-2.070313 -0.48828,-0.820312 -1.40625,-1.210937 -0.91796,-0.410156 -2.38281,-0.410156 -1.5039,0 -3.14453,0.742187 -1.64062,0.742188 -3.14453,1.894531 V 61 h -3.67188 V 39.183594 h 3.67188 v 2.421875 q 1.71875,-1.425782 3.55469,-2.226563 1.83593,-0.800781 3.76953,-0.800781 3.53515,0 5.39062,2.128906 1.85547,2.128906 1.85547,6.132813 z"
         id="path9" />
      <path
         style="font-weight:700;fill:url(#pul5-gradient-text)"
         d="m 181.86328,51.859375 q 0,4.296875 -3.65234,6.992187 -3.63282,2.675782 -9.88282,2.675782 -3.61328,0 -6.30859,-0.625 Q 159.34375,60.257812 157,59.28125 v -6.972656 h 0.82031 q 2.32422,1.855468 5.19531,2.851562 2.89063,0.996094 5.54688,0.996094 0.68359,0 1.79687,-0.117188 1.11329,-0.117187 1.81641,-0.390625 0.85938,-0.351562 1.40625,-0.878906 0.56641,-0.527344 0.56641,-1.5625 0,-0.957031 -0.82032,-1.640625 -0.80078,-0.703125 -2.36328,-1.074219 -1.64062,-0.390625 -3.47656,-0.722656 -1.81641,-0.351562 -3.41797,-0.878906 -3.67187,-1.191406 -5.29297,-3.222656 -1.60156,-2.050782 -1.60156,-5.078125 0,-4.0625 3.63281,-6.621094 3.65235,-2.578125 9.375,-2.578125 2.8711,0 5.66407,0.566406 2.8125,0.546875 4.86328,1.386719 v 6.699219 h -0.80078 q -1.75782,-1.40625 -4.31641,-2.34375 -2.53906,-0.957032 -5.19531,-0.957032 -0.9375,0 -1.875,0.136719 -0.91797,0.117188 -1.77735,0.46875 -0.76172,0.292969 -1.30859,0.898438 -0.54688,0.585937 -0.54688,1.347656 0,1.152344 0.87891,1.777344 0.87891,0.605468 3.32031,1.113281 1.60157,0.332031 3.06641,0.644531 1.48437,0.3125 3.18359,0.859375 3.33985,1.09375 4.92188,2.988281 1.60156,1.875 1.60156,4.882813 z m 27.66797,-1.816406 q 0,5.410156 -3.16406,8.535156 -3.14453,3.105469 -8.84766,3.105469 -5.70312,0 -8.86719,-3.105469 -3.14453,-3.125 -3.14453,-8.535156 0,-5.449219 3.16406,-8.554688 3.1836,-3.105469 8.84766,-3.105469 5.74219,0 8.86719,3.125 3.14453,3.125 3.14453,8.535157 z M 200.87891,55.375 q 0.68359,-0.839844 1.01562,-2.011719 0.35156,-1.191406 0.35156,-3.28125 0,-1.933594 -0.35156,-3.242187 -0.35156,-1.308594 -0.97656,-2.089844 -0.625,-0.800781 -1.50391,-1.132813 -0.8789,-0.332031 -1.89453,-0.332031 -1.01562,0 -1.81641,0.273438 -0.78125,0.273437 -1.5039,1.09375 -0.64453,0.761718 -1.03516,2.089843 -0.37109,1.328125 -0.37109,3.339844 0,1.796875 0.33203,3.125 0.33203,1.308594 0.97656,2.109375 0.625,0.761719 1.48438,1.113281 0.8789,0.351563 1.99218,0.351563 0.95704,0 1.81641,-0.3125 0.87891,-0.332031 1.48438,-1.09375 z m 30.08984,-9.609375 h -0.625 q -0.44922,-0.15625 -1.44531,-0.234375 -0.9961,-0.07813 -1.66016,-0.07813 -1.50391,0 -2.65625,0.195312 -1.15234,0.195313 -2.48047,0.664063 V 61 h -7.03125 V 39.066406 h 7.03125 v 3.222656 q 2.32422,-1.992187 4.04297,-2.636718 1.71875,-0.664063 3.16406,-0.664063 0.3711,0 0.83985,0.01953 0.46875,0.01953 0.82031,0.05859 z m 18.50781,15.039062 q -1.13281,0.292969 -2.40234,0.449219 -1.26953,0.175781 -3.10547,0.175781 -4.10156,0 -6.11328,-1.660156 -1.99219,-1.660156 -1.99219,-5.683594 V 43.832031 h -2.89062 v -4.765625 h 2.89062 v -6.269531 h 7.03125 v 6.269531 h 6.58203 v 4.765625 h -6.58203 v 7.773438 q 0,1.152343 0.0195,2.011718 0.0195,0.859375 0.3125,1.542969 0.27344,0.683594 0.95703,1.09375 0.70313,0.390625 2.03125,0.390625 0.54688,0 1.42578,-0.234375 0.89844,-0.234375 1.25,-0.429687 h 0.58594 z"
         id="path10" />
    </g>
  </g>
  <metadata
     id="metadata10">
    <rdf:RDF>
      <cc:Work
         rdf:about="">
        <dc:title>ZenSort Full Logo</dc:title>
      </cc:Work>
    </rdf:RDF>
  </metadata>
</svg>
